<svg width="51" height="19" viewBox="0 0 51 19" fill="none" xmlns="http://www.w3.org/2000/svg">
<path d="M0.125 18V0.545454H7.65909C8.95455 0.545454 10.0881 0.801136 11.0597 1.3125C12.0313 1.82386 12.7869 2.54261 13.3267 3.46875C13.8665 4.39489 14.1364 5.47727 14.1364 6.71591C14.1364 7.96591 13.858 9.0483 13.3011 9.96307C12.75 10.8778 11.9744 11.5824 10.9744 12.0767C9.98011 12.571 8.81818 12.8182 7.48864 12.8182H2.98864V9.13636H6.53409C7.09091 9.13636 7.56534 9.03977 7.95739 8.84659C8.35511 8.64773 8.65909 8.36648 8.86932 8.00284C9.08523 7.6392 9.19318 7.21023 9.19318 6.71591C9.19318 6.21591 9.08523 5.78977 8.86932 5.4375C8.65909 5.07955 8.35511 4.80682 7.95739 4.61932C7.56534 4.42614 7.09091 4.32954 6.53409 4.32954H4.86364V18H0.125ZM31.4573 0.545454V18H27.5027L21.1959 8.82955H21.0936V18H16.355V0.545454H20.3777L26.5823 9.68182H26.7186V0.545454H31.4573ZM45.514 6.30682C45.4401 6.00568 45.3236 5.74148 45.1645 5.5142C45.0055 5.28125 44.8066 5.08523 44.568 4.92614C44.335 4.76136 44.0623 4.6392 43.7498 4.55966C43.443 4.47443 43.1049 4.43182 42.7356 4.43182C41.9401 4.43182 41.2611 4.62216 40.6986 5.00284C40.1418 5.38352 39.7157 5.93182 39.4202 6.64773C39.1305 7.36364 38.9856 8.22727 38.9856 9.23864C38.9856 10.2614 39.1248 11.1364 39.4032 11.8636C39.6816 12.5909 40.0964 13.1477 40.6475 13.5341C41.1986 13.9205 41.8833 14.1136 42.7015 14.1136C43.4231 14.1136 44.0225 14.0085 44.4998 13.7983C44.9827 13.5881 45.3435 13.2898 45.5822 12.9034C45.8208 12.517 45.9401 12.0625 45.9401 11.5398L46.7583 11.625H42.7697V8.25H50.5083V10.6705C50.5083 12.2614 50.1702 13.6222 49.4941 14.7528C48.8236 15.8778 47.8975 16.7415 46.7157 17.3438C45.5395 17.9403 44.1901 18.2386 42.6674 18.2386C40.9685 18.2386 39.477 17.8778 38.193 17.1562C36.9089 16.4347 35.906 15.4062 35.1844 14.071C34.4685 12.7358 34.1106 11.1477 34.1106 9.30682C34.1106 7.86364 34.3293 6.58523 34.7668 5.47159C35.21 4.35795 35.8236 3.41761 36.6077 2.65057C37.3918 1.87784 38.2981 1.29545 39.3265 0.903408C40.3549 0.505681 41.4572 0.306818 42.6333 0.306818C43.6674 0.306818 44.6276 0.454545 45.514 0.75C46.406 1.03977 47.193 1.45454 47.8748 1.99432C48.5623 2.52841 49.1162 3.16193 49.5367 3.89489C49.9572 4.62784 50.2128 5.43182 50.3037 6.30682H45.514Z" fill="black"/>
</svg>
