<svg width="76" height="73" viewBox="0 0 76 73" fill="none" xmlns="http://www.w3.org/2000/svg">
<mask id="path-1-inside-1_5334_3021" fill="white">
<path d="M37.049 0.923491C37.3486 0.00259495 38.6514 0.0025928 38.951 0.923489L47.2181 26.3387C47.352 26.7506 47.7359 27.0294 48.169 27.0294H74.9195C75.8885 27.0294 76.2911 28.2696 75.5069 28.8387L53.7961 44.595C53.4806 44.824 53.0477 44.8412 52.7071 44.6518C32.7953 33.5792 30.5441 35.852 57.2156 67.5228C57.9792 68.4296 56.8094 69.7095 55.8499 69.0132L38.5874 56.4851C38.237 56.2309 37.7629 56.2309 37.4126 56.4851L15.7686 72.1929C14.9847 72.7618 13.9307 71.9954 14.2303 71.0743L22.4964 45.6621C22.6305 45.2498 22.4837 44.7981 22.1328 44.5435L0.493097 28.8387C-0.291135 28.2696 0.11146 27.0294 1.08045 27.0294H27.831C28.2641 27.0294 28.648 26.7506 28.7819 26.3387L37.049 0.923491Z"/>
</mask>
<path d="M28.7819 26.3387L-2.59959 16.1309L28.7819 26.3387ZM0.493097 28.8387L19.8759 2.13094L0.493097 28.8387ZM22.4964 45.6621L53.8779 55.8699L22.4964 45.6621ZM22.1328 44.5435L41.5156 17.8357L22.1328 44.5435ZM15.7686 72.1929L35.1514 98.9007L15.7686 72.1929ZM14.2303 71.0743L-17.1512 60.8665L14.2303 71.0743ZM38.5874 56.4851L57.9702 29.7773L38.5874 56.4851ZM37.4126 56.4851L56.7954 83.1929L37.4126 56.4851ZM57.2156 67.5228L31.974 88.7799L57.2156 67.5228ZM55.8499 69.0132L75.2327 42.3054L55.8499 69.0132ZM53.7961 44.595L73.1789 71.3028L53.7961 44.595ZM52.7071 44.6518L68.7449 15.811V15.811L52.7071 44.6518ZM75.5069 28.8387L94.8897 55.5466L75.5069 28.8387ZM47.2181 26.3387L15.8365 36.5466L47.2181 26.3387ZM38.951 0.923489L70.3325 -9.28433L38.951 0.923489ZM37.049 0.923491L5.66751 -9.28433L37.049 0.923491ZM7.56942 11.1313L15.8365 36.5466L78.5996 16.1309L70.3325 -9.28433L7.56942 11.1313ZM48.169 60.0294H74.9195V-5.97058H48.169V60.0294ZM56.1241 2.13094L34.4133 17.8872L73.1789 71.3028L94.8897 55.5466L56.1241 2.13094ZM68.7449 15.811C63.9363 13.1371 57.5111 9.69664 51.5256 7.7376C49.9278 7.21464 41.1469 4.11684 30.8047 6.54611C24.0784 8.12608 15.4621 12.3937 9.68976 21.6098C4.38565 30.0784 4.2143 38.4369 4.62478 43.0092C5.35253 51.1156 8.81276 57.3792 9.93308 59.407C11.6466 62.5086 13.6892 65.5444 15.6585 68.2855C19.6458 73.8354 25.1645 80.694 31.974 88.7799L82.4571 46.2657C75.9309 38.5163 71.7292 33.2142 69.2594 29.7765C68.0003 28.0239 67.6302 27.3592 67.7029 27.4908C67.7487 27.5737 68.146 28.2897 68.6165 29.4955C69.0093 30.502 70.0135 33.2432 70.3604 37.1079C70.7004 40.8944 70.6404 48.6342 65.6242 56.6431C60.1398 65.3996 51.9879 69.3667 45.8968 70.7974C40.5378 72.0562 36.3052 71.5518 34.6706 71.3071C32.734 71.0171 31.4142 70.6003 30.9955 70.4633C30.1988 70.2026 31.5219 70.6302 36.6692 73.4925L68.7449 15.811ZM75.2327 42.3054L57.9702 29.7773L19.2046 83.1929L36.4671 95.721L75.2327 42.3054ZM18.0298 29.7773L-3.61416 45.4851L35.1514 98.9007L56.7954 83.1929L18.0298 29.7773ZM45.6119 81.2821L53.8779 55.8699L-8.88512 35.4543L-17.1512 60.8665L45.6119 81.2821ZM41.5156 17.8357L19.8759 2.13094L-18.8897 55.5466L2.75001 71.2513L41.5156 17.8357ZM1.08045 60.0294H27.831V-5.97058H1.08045V60.0294ZM60.1635 36.5466L68.4306 11.1313L5.66751 -9.28433L-2.59959 16.1309L60.1635 36.5466ZM27.831 60.0294C42.5565 60.0294 55.6084 50.55 60.1635 36.5466L-2.59959 16.1309C1.68752 2.9512 13.9717 -5.97058 27.831 -5.97058V60.0294ZM19.8759 2.13094C44.9712 20.3435 32.0884 60.0294 1.08045 60.0294V-5.97058C-31.8655 -5.97058 -45.5535 36.1957 -18.8897 55.5466L19.8759 2.13094ZM53.8779 55.8699C58.4375 41.8525 53.4455 26.4936 41.5156 17.8357L2.75001 71.2513C-8.47809 63.1026 -13.1765 48.6472 -8.88512 35.4543L53.8779 55.8699ZM-3.61416 45.4851C21.4715 27.2796 55.1998 51.8062 45.6119 81.2821L-17.1512 60.8665C-27.3384 92.1846 8.49794 118.244 35.1514 98.9007L-3.61416 45.4851ZM57.9702 29.7773C46.0597 21.1335 29.9403 21.1335 18.0298 29.7773L56.7954 83.1929C45.5856 91.3283 30.4144 91.3283 19.2046 83.1929L57.9702 29.7773ZM31.974 88.7799C19.7676 74.2856 24.0874 56.147 32.836 46.5886C41.6517 36.9569 59.6514 30.9975 75.2327 42.3054L36.4671 95.721C53.0079 107.725 72.0723 101.474 81.5218 91.1497C90.9043 80.8987 95.4272 61.6669 82.4571 46.2657L31.974 88.7799ZM34.4133 17.8872C44.9687 10.2268 58.4001 10.0585 68.7449 15.811L36.6692 73.4925C47.6954 79.624 61.9925 79.4212 73.1789 71.3028L34.4133 17.8872ZM74.9195 60.0294C43.9116 60.0294 31.0289 20.3434 56.1241 2.13094L94.8897 55.5466C121.553 36.1958 107.866 -5.97058 74.9195 -5.97058V60.0294ZM15.8365 36.5466C20.3915 50.5499 33.4433 60.0294 48.169 60.0294V-5.97058C62.0285 -5.97058 74.3125 2.95133 78.5996 16.1309L15.8365 36.5466ZM70.3325 -9.28433C60.1477 -40.595 15.8521 -40.5946 5.66751 -9.28433L68.4306 11.1313C58.845 40.5998 17.1551 40.6002 7.56942 11.1313L70.3325 -9.28433Z" fill="black" mask="url(#path-1-inside-1_5334_3021)"/>
</svg>
