<?xml version="1.0" encoding="UTF-8" standalone="no"?>
<svg xmlns="http://www.w3.org/2000/svg" version="1.2" baseProfile="tiny" viewBox="0 0 74 32">
<g stroke-width="2.00" fill="none" stroke-linecap="butt">
<path stroke="#bdbdbd" vector-effect="non-scaling-stroke" d="
  M 47.43 21.91
  Q 48.09 22.58 48.55 23.39
  C 53.45 32.00 67.93 31.05 71.15 21.52
  C 72.02 18.95 71.79 15.82 71.69 12.98
  C 71.19 -0.83 53.62 -2.33 47.46 9.09
  Q 47.19 9.59 47.18 9.03
  L 47.08 2.36
  A 0.52 0.46 89.4 0 0 46.62 1.85
  L 38.01 1.79
  A 0.53 0.49 -89.4 0 0 37.52 2.31
  L 37.31 10.05
  Q 37.30 10.61 36.97 10.13
  L 31.58 2.32
  A 1.04 0.83 69.5 0 0 30.81 1.86
  L 23.88 1.84
  A 0.59 0.50 -86.5 0 0 23.36 2.38
  L 23.08 5.55
  Q 23.04 6.07 22.68 5.66
  C 18.06 0.44 10.31 1.48 2.92 1.91
  A 0.55 0.52 -1.8 0 0 2.40 2.43
  L 2.40 28.30
  A 0.54 0.52 -89.5 0 0 2.91 28.84
  L 11.39 28.90
  A 0.56 0.52 -89.4 0 0 11.91 28.35
  L 12.03 22.22
  A 0.46 0.45 -87.1 0 1 12.52 21.77
  Q 18.95 22.33 22.95 17.46
  Q 23.38 16.95 23.38 17.63
  L 23.35 28.38
  A 0.53 0.52 0.0 0 0 23.88 28.90
  L 32.35 28.91
  A 0.53 0.53 -89.4 0 0 32.88 28.39
  L 32.99 21.49
  Q 33.01 19.84 33.95 21.20
  L 38.91 28.41
  A 1.05 0.88 69.5 0 0 39.72 28.87
  L 46.73 28.84
  A 0.55 0.46 89.4 0 0 47.19 28.28
  L 47.03 22.06
  Q 47.02 21.50 47.43 21.91"
/>
<path stroke="#bdbdbd" vector-effect="non-scaling-stroke" d="
  M 64.21 19.05
  C 64.24 24.18 52.73 24.02 54.31 13.39
  C 55.11 7.93 60.46 6.64 64.14 11.01
  A 1.03 0.98 -19.9 0 0 64.96 11.37
  L 68.98 11.20
  A 0.43 0.41 -6.8 0 0 69.39 10.70
  C 68.21 4.64 61.21 2.38 56.10 3.97
  C 44.22 7.66 46.42 27.83 59.76 27.25
  C 66.86 26.95 70.91 21.80 69.60 14.73
  A 0.60 0.60 -5.2 0 0 69.01 14.24
  L 60.49 14.23
  A 0.70 0.66 7.8 0 0 59.83 14.70
  Q 59.28 16.55 60.18 18.08
  A 0.97 0.58 -8.5 0 0 60.94 18.39
  L 63.70 18.43
  A 0.62 0.52 -89.5 0 1 64.21 19.05"
/>
<path stroke="#bdbdbd" vector-effect="non-scaling-stroke" d="
  M 18.81 5.18
  Q 16.71 3.76 14.58 3.78
  L 5.08 3.86
  A 0.53 0.53 0.0 0 0 4.56 4.38
  L 4.46 26.32
  A 0.58 0.49 90.0 0 0 4.95 26.90
  L 9.56 26.88
  A 0.58 0.45 -89.4 0 0 10.01 26.31
  L 10.16 20.24
  A 0.51 0.47 2.8 0 1 10.71 19.78
  Q 15.92 20.17 18.00 19.01
  C 23.45 15.98 24.26 8.87 18.81 5.18"
/>
<path stroke="#bdbdbd" vector-effect="non-scaling-stroke" d="
  M 39.45 15.96
  Q 39.44 17.54 38.54 16.22
  L 30.52 4.41
  A 1.10 0.84 69.4 0 0 29.74 3.92
  L 25.77 3.77
  A 0.54 0.48 -89.0 0 0 25.27 4.31
  L 25.28 26.43
  A 0.55 0.49 89.5 0 0 25.78 26.98
  L 30.36 26.86
  A 0.58 0.48 -89.9 0 0 30.83 26.29
  L 31.02 14.26
  Q 31.03 13.70 31.35 14.17
  L 39.87 26.44
  A 1.08 0.70 65.9 0 0 40.63 26.93
  L 44.53 26.87
  A 0.60 0.53 89.5 0 0 45.05 26.27
  L 45.02 4.47
  A 0.58 0.53 -89.0 0 0 44.51 3.89
  L 40.02 3.77
  A 0.56 0.50 -88.9 0 0 39.51 4.32
  L 39.45 15.96"
/>
<path stroke="#bdbdbd" vector-effect="non-scaling-stroke" d="
  M 57.16 11.65
  Q 55.22 15.92 56.65 18.55
  Q 57.72 20.49 57.75 18.25
  L 57.83 12.88
  A 0.56 0.54 89.5 0 1 58.35 12.33
  L 61.21 12.22
  A 0.49 0.39 -6.0 0 0 61.69 11.74
  Q 61.44 10.66 59.30 10.43
  A 2.10 2.09 -74.6 0 0 57.16 11.65"
/>
<path stroke="#bdbdbd" vector-effect="non-scaling-stroke" d="
  M 10.62 15.38
  C 19.52 15.82 17.82 6.83 10.62 8.31
  A 0.67 0.61 -6.3 0 0 10.08 8.92
  L 10.08 14.84
  A 0.57 0.54 1.7 0 0 10.62 15.38"
/>
<path stroke="#bdbdbd" vector-effect="non-scaling-stroke" d="
  M 13.01 13.44
  C 17.65 11.75 10.56 7.25 12.32 13.10
  A 0.54 0.53 -18.3 0 0 13.01 13.44"
/>
</g>
<path fill="none" d="
  M 0.00 0.00
  L 74.00 0.00
  L 74.00 32.00
  L 0.00 32.00
  L 0.00 0.00
  Z
  M 47.43 21.91
  Q 48.09 22.58 48.55 23.39
  C 53.45 32.00 67.93 31.05 71.15 21.52
  C 72.02 18.95 71.79 15.82 71.69 12.98
  C 71.19 -0.83 53.62 -2.33 47.46 9.09
  Q 47.19 9.59 47.18 9.03
  L 47.08 2.36
  A 0.52 0.46 89.4 0 0 46.62 1.85
  L 38.01 1.79
  A 0.53 0.49 -89.4 0 0 37.52 2.31
  L 37.31 10.05
  Q 37.30 10.61 36.97 10.13
  L 31.58 2.32
  A 1.04 0.83 69.5 0 0 30.81 1.86
  L 23.88 1.84
  A 0.59 0.50 -86.5 0 0 23.36 2.38
  L 23.08 5.55
  Q 23.04 6.07 22.68 5.66
  C 18.06 0.44 10.31 1.48 2.92 1.91
  A 0.55 0.52 -1.8 0 0 2.40 2.43
  L 2.40 28.30
  A 0.54 0.52 -89.5 0 0 2.91 28.84
  L 11.39 28.90
  A 0.56 0.52 -89.4 0 0 11.91 28.35
  L 12.03 22.22
  A 0.46 0.45 -87.1 0 1 12.52 21.77
  Q 18.95 22.33 22.95 17.46
  Q 23.38 16.95 23.38 17.63
  L 23.35 28.38
  A 0.53 0.52 0.0 0 0 23.88 28.90
  L 32.35 28.91
  A 0.53 0.53 -89.4 0 0 32.88 28.39
  L 32.99 21.49
  Q 33.01 19.84 33.95 21.20
  L 38.91 28.41
  A 1.05 0.88 69.5 0 0 39.72 28.87
  L 46.73 28.84
  A 0.55 0.46 89.4 0 0 47.19 28.28
  L 47.03 22.06
  Q 47.02 21.50 47.43 21.91
  Z"
/>
<path fill="#7b7b7b" d="
  M 47.03 22.06
  L 47.19 28.28
  A 0.55 0.46 89.4 0 1 46.73 28.84
  L 39.72 28.87
  A 1.05 0.88 69.5 0 1 38.91 28.41
  L 33.95 21.20
  Q 33.01 19.84 32.99 21.49
  L 32.88 28.39
  A 0.53 0.53 -89.4 0 1 32.35 28.91
  L 23.88 28.90
  A 0.53 0.52 -0.0 0 1 23.35 28.38
  L 23.38 17.63
  Q 23.38 16.95 22.95 17.46
  Q 18.95 22.33 12.52 21.77
  A 0.46 0.45 -87.1 0 0 12.03 22.22
  L 11.91 28.35
  A 0.56 0.52 -89.4 0 1 11.39 28.90
  L 2.91 28.84
  A 0.54 0.52 -89.5 0 1 2.40 28.30
  L 2.40 2.43
  A 0.55 0.52 -1.8 0 1 2.92 1.91
  C 10.31 1.48 18.06 0.44 22.68 5.66
  Q 23.04 6.07 23.08 5.55
  L 23.36 2.38
  A 0.59 0.50 -86.5 0 1 23.88 1.84
  L 30.81 1.86
  A 1.04 0.83 69.5 0 1 31.58 2.32
  L 36.97 10.13
  Q 37.30 10.61 37.31 10.05
  L 37.52 2.31
  A 0.53 0.49 -89.4 0 1 38.01 1.79
  L 46.62 1.85
  A 0.52 0.46 89.4 0 1 47.08 2.36
  L 47.18 9.03
  Q 47.19 9.59 47.46 9.09
  C 53.62 -2.33 71.19 -0.83 71.69 12.98
  C 71.79 15.82 72.02 18.95 71.15 21.52
  C 67.93 31.05 53.45 32.00 48.55 23.39
  Q 48.09 22.58 47.43 21.91
  Q 47.02 21.50 47.03 22.06
  Z
  M 64.21 19.05
  C 64.24 24.18 52.73 24.02 54.31 13.39
  C 55.11 7.93 60.46 6.64 64.14 11.01
  A 1.03 0.98 -19.9 0 0 64.96 11.37
  L 68.98 11.20
  A 0.43 0.41 -6.8 0 0 69.39 10.70
  C 68.21 4.64 61.21 2.38 56.10 3.97
  C 44.22 7.66 46.42 27.83 59.76 27.25
  C 66.86 26.95 70.91 21.80 69.60 14.73
  A 0.60 0.60 -5.2 0 0 69.01 14.24
  L 60.49 14.23
  A 0.70 0.66 7.8 0 0 59.83 14.70
  Q 59.28 16.55 60.18 18.08
  A 0.97 0.58 -8.5 0 0 60.94 18.39
  L 63.70 18.43
  A 0.62 0.52 -89.5 0 1 64.21 19.05
  Z
  M 18.81 5.18
  Q 16.71 3.76 14.58 3.78
  L 5.08 3.86
  A 0.53 0.53 0.0 0 0 4.56 4.38
  L 4.46 26.32
  A 0.58 0.49 90.0 0 0 4.95 26.90
  L 9.56 26.88
  A 0.58 0.45 -89.4 0 0 10.01 26.31
  L 10.16 20.24
  A 0.51 0.47 2.8 0 1 10.71 19.78
  Q 15.92 20.17 18.00 19.01
  C 23.45 15.98 24.26 8.87 18.81 5.18
  Z
  M 39.45 15.96
  Q 39.44 17.54 38.54 16.22
  L 30.52 4.41
  A 1.10 0.84 69.4 0 0 29.74 3.92
  L 25.77 3.77
  A 0.54 0.48 -89.0 0 0 25.27 4.31
  L 25.28 26.43
  A 0.55 0.49 89.5 0 0 25.78 26.98
  L 30.36 26.86
  A 0.58 0.48 -89.9 0 0 30.83 26.29
  L 31.02 14.26
  Q 31.03 13.70 31.35 14.17
  L 39.87 26.44
  A 1.08 0.70 65.9 0 0 40.63 26.93
  L 44.53 26.87
  A 0.60 0.53 89.5 0 0 45.05 26.27
  L 45.02 4.47
  A 0.58 0.53 -89.0 0 0 44.51 3.89
  L 40.02 3.77
  A 0.56 0.50 -88.9 0 0 39.51 4.32
  L 39.45 15.96
  Z
  M 57.16 11.65
  Q 55.22 15.92 56.65 18.55
  Q 57.72 20.49 57.75 18.25
  L 57.83 12.88
  A 0.56 0.54 89.5 0 1 58.35 12.33
  L 61.21 12.22
  A 0.49 0.39 -6.0 0 0 61.69 11.74
  Q 61.44 10.66 59.30 10.43
  A 2.10 2.09 -74.6 0 0 57.16 11.65
  Z"
/>
<path fill="none" d="
  M 63.70 18.43
  L 60.94 18.39
  A 0.97 0.58 -8.5 0 1 60.18 18.08
  Q 59.28 16.55 59.83 14.70
  A 0.70 0.66 7.8 0 1 60.49 14.23
  L 69.01 14.24
  A 0.60 0.60 -5.2 0 1 69.60 14.73
  C 70.91 21.80 66.86 26.95 59.76 27.25
  C 46.42 27.83 44.22 7.66 56.10 3.97
  C 61.21 2.38 68.21 4.64 69.39 10.70
  A 0.43 0.41 -6.8 0 1 68.98 11.20
  L 64.96 11.37
  A 1.03 0.98 -19.9 0 1 64.14 11.01
  C 60.46 6.64 55.11 7.93 54.31 13.39
  C 52.73 24.02 64.24 24.18 64.21 19.05
  A 0.62 0.52 -89.5 0 0 63.70 18.43
  Z"
/>
<path fill="none" d="
  M 18.81 5.18
  C 24.26 8.87 23.45 15.98 18.00 19.01
  Q 15.92 20.17 10.71 19.78
  A 0.51 0.47 2.8 0 0 10.16 20.24
  L 10.01 26.31
  A 0.58 0.45 -89.4 0 1 9.56 26.88
  L 4.95 26.90
  A 0.58 0.49 90.0 0 1 4.46 26.32
  L 4.56 4.38
  A 0.53 0.53 0.0 0 1 5.08 3.86
  L 14.58 3.78
  Q 16.71 3.76 18.81 5.18
  Z
  M 10.62 15.38
  C 19.52 15.82 17.82 6.83 10.62 8.31
  A 0.67 0.61 -6.3 0 0 10.08 8.92
  L 10.08 14.84
  A 0.57 0.54 1.7 0 0 10.62 15.38
  Z"
/>
<path fill="none" d="
  M 39.45 15.96
  L 39.51 4.32
  A 0.56 0.50 -88.9 0 1 40.02 3.77
  L 44.51 3.89
  A 0.58 0.53 -89.0 0 1 45.02 4.47
  L 45.05 26.27
  A 0.60 0.53 89.5 0 1 44.53 26.87
  L 40.63 26.93
  A 1.08 0.70 65.9 0 1 39.87 26.44
  L 31.35 14.17
  Q 31.03 13.70 31.02 14.26
  L 30.83 26.29
  A 0.58 0.48 -89.9 0 1 30.36 26.86
  L 25.78 26.98
  A 0.55 0.49 89.5 0 1 25.28 26.43
  L 25.27 4.31
  A 0.54 0.48 -89.0 0 1 25.77 3.77
  L 29.74 3.92
  A 1.10 0.84 69.4 0 1 30.52 4.41
  L 38.54 16.22
  Q 39.44 17.54 39.45 15.96
  Z"
/>
<path fill="#7b7b7b" d="
  M 10.62 8.31
  C 17.82 6.83 19.52 15.82 10.62 15.38
  A 0.57 0.54 1.7 0 1 10.08 14.84
  L 10.08 8.92
  A 0.67 0.61 -6.3 0 1 10.62 8.31
  Z
  M 13.01 13.44
  C 17.65 11.75 10.56 7.25 12.32 13.10
  A 0.54 0.53 -18.3 0 0 13.01 13.44
  Z"
/>
<path fill="none" d="
  M 12.32 13.10
  C 10.56 7.25 17.65 11.75 13.01 13.44
  A 0.54 0.53 -18.3 0 1 12.32 13.10
  Z"
/>
<path fill="none" d="
  M 57.16 11.65
  A 2.10 2.09 -74.6 0 1 59.30 10.43
  Q 61.44 10.66 61.69 11.74
  A 0.49 0.39 -6.0 0 1 61.21 12.22
  L 58.35 12.33
  A 0.56 0.54 89.5 0 0 57.83 12.88
  L 57.75 18.25
  Q 57.72 20.49 56.65 18.55
  Q 55.22 15.92 57.16 11.65
  Z"
/>
</svg>
