<svg width="24" height="24" viewBox="0 0 24 24" fill="none" xmlns="http://www.w3.org/2000/svg">
<path d="M10.7121 5.01862L12.0275 7.22183L13.3019 4.99462C14.4578 2.97458 15.6065 2.04566 16.5325 1.69286C17.4124 1.35763 18.2825 1.46785 19.1329 1.9629C20.9509 3.02122 22.5 5.79097 22.5 8.75356C22.5 11.6323 21.0563 14.4597 18.8579 16.9545C16.8691 19.2114 14.3649 21.0757 12.1087 22.3073C9.83689 21.0719 7.27928 19.2028 5.24002 16.9416C2.98379 14.4399 1.5 11.617 1.5 8.75356C1.5 5.77085 3.0095 3.00862 4.79162 1.95906C5.62129 1.47043 6.48359 1.35572 7.37868 1.69419C8.32365 2.05151 9.50129 2.99067 10.7121 5.01862Z" stroke="black" stroke-width="3"/>
</svg>
