<svg width="13" height="12" viewBox="0 0 13 12" fill="none" xmlns="http://www.w3.org/2000/svg">
<mask id="path-1-inside-1_4723_1379" fill="white">
<path d="M6.50053 0.449219L7.77977 4.73396L12.2501 4.62652L8.57038 7.16721L10.054 11.3855L6.50053 8.67104L2.9471 11.3855L4.43069 7.16721L0.750964 4.62652L5.2213 4.73396L6.50053 0.449219Z"/>
</mask>
<path d="M6.50053 0.449219L7.77977 4.73396L12.2501 4.62652L8.57038 7.16721L10.054 11.3855L6.50053 8.67104L2.9471 11.3855L4.43069 7.16721L0.750964 4.62652L5.2213 4.73396L6.50053 0.449219Z" fill="white"/>
<path d="M6.50053 0.449219L11.2916 -0.981172L6.50053 -17.0285L1.7095 -0.981172L6.50053 0.449219ZM7.77977 4.73396L2.98874 6.16435L4.08143 9.82428L7.89989 9.73252L7.77977 4.73396ZM12.2501 4.62652L15.091 8.74105L28.8724 -0.774395L12.13 -0.372032L12.2501 4.62652ZM8.57038 7.16721L5.72948 3.05268L2.58634 5.22288L3.85359 8.82609L8.57038 7.16721ZM10.054 11.3855L7.0187 15.3589L20.3271 25.5253L14.7708 9.72666L10.054 11.3855ZM6.50053 8.67104L9.5358 4.69773L6.50053 2.37905L3.46527 4.69773L6.50053 8.67104ZM2.9471 11.3855L-1.76968 9.72666L-7.32605 25.5253L5.98237 15.3589L2.9471 11.3855ZM4.43069 7.16721L9.14748 8.82609L10.4147 5.22288L7.27158 3.05268L4.43069 7.16721ZM0.750964 4.62652L0.871092 -0.372032L-15.8714 -0.774395L-2.08993 8.74105L0.750964 4.62652ZM5.2213 4.73396L5.10117 9.73252L8.91963 9.82428L10.0123 6.16435L5.2213 4.73396ZM1.7095 1.87961L2.98874 6.16435L12.5708 3.30357L11.2916 -0.981172L1.7095 1.87961ZM7.89989 9.73252L12.3702 9.62508L12.13 -0.372032L7.65964 -0.264598L7.89989 9.73252ZM9.40921 0.511999L5.72948 3.05268L11.4113 11.2817L15.091 8.74105L9.40921 0.511999ZM3.85359 8.82609L5.33717 13.0444L14.7708 9.72666L13.2872 5.50832L3.85359 8.82609ZM13.0892 7.41224L9.5358 4.69773L3.46527 12.6443L7.0187 15.3589L13.0892 7.41224ZM3.46527 4.69773L-0.0881595 7.41224L5.98237 15.3589L9.5358 12.6443L3.46527 4.69773ZM7.66389 13.0444L9.14748 8.82609L-0.286101 5.50832L-1.76968 9.72666L7.66389 13.0444ZM7.27158 3.05268L3.59186 0.511999L-2.08993 8.74105L1.58979 11.2817L7.27158 3.05268ZM0.630836 9.62508L5.10117 9.73252L5.34143 -0.264598L0.871092 -0.372032L0.630836 9.62508ZM10.0123 6.16435L11.2916 1.87961L1.7095 -0.981172L0.430267 3.30357L10.0123 6.16435Z" fill="#3A3A3A" mask="url(#path-1-inside-1_4723_1379)"/>
</svg>
