<svg width="10" height="12" viewBox="0 0 10 12" fill="none" xmlns="http://www.w3.org/2000/svg">
<path opacity="0.5" d="M0.00976562 12V0.363636H5.03249C5.89613 0.363636 6.65181 0.534091 7.29954 0.875C7.94727 1.21591 8.45105 1.69508 8.8109 2.3125C9.17075 2.92992 9.35067 3.65151 9.35067 4.47727C9.35067 5.31061 9.16507 6.0322 8.79386 6.64205C8.42643 7.25189 7.90939 7.72159 7.24272 8.05114C6.57984 8.38068 5.80522 8.54545 4.91886 8.54545H1.91886V6.09091H4.28249C4.65371 6.09091 4.96999 6.02652 5.23136 5.89773C5.49651 5.76515 5.69916 5.57765 5.83931 5.33523C5.98325 5.0928 6.05522 4.80682 6.05522 4.47727C6.05522 4.14394 5.98325 3.85985 5.83931 3.625C5.69916 3.38636 5.49651 3.20455 5.23136 3.07955C4.96999 2.95076 4.65371 2.88636 4.28249 2.88636H3.16886V12H0.00976562Z" fill="black"/>
</svg>
