<svg width="11" height="13" viewBox="0 0 11 13" fill="none" xmlns="http://www.w3.org/2000/svg">
<path opacity="0.5" d="M10.975 4.72727H7.77042C7.74769 4.46212 7.68709 4.22159 7.5886 4.00568C7.4939 3.78977 7.36133 3.60417 7.19087 3.44886C7.02421 3.28977 6.82156 3.16856 6.58292 3.08523C6.34428 2.99811 6.07345 2.95455 5.77042 2.95455C5.24012 2.95455 4.79125 3.08333 4.42383 3.34091C4.06019 3.59848 3.78368 3.9678 3.59428 4.44886C3.40868 4.92992 3.31587 5.50758 3.31587 6.18182C3.31587 6.89394 3.41057 7.49053 3.59996 7.97159C3.79315 8.44886 4.07156 8.80871 4.43519 9.05114C4.79883 9.28977 5.23633 9.40909 5.74769 9.40909C6.03936 9.40909 6.30072 9.37311 6.53178 9.30114C6.76284 9.22538 6.9636 9.11742 7.13406 8.97727C7.30451 8.83712 7.44277 8.66856 7.54883 8.47159C7.65868 8.27083 7.73254 8.04545 7.77042 7.79545L10.975 7.81818C10.9371 8.31061 10.7988 8.8125 10.5602 9.32386C10.3216 9.83144 9.98254 10.3011 9.54315 10.733C9.10754 11.161 8.56777 11.5057 7.92383 11.767C7.27989 12.0284 6.53178 12.1591 5.67951 12.1591C4.61133 12.1591 3.65299 11.9299 2.80451 11.4716C1.95981 11.0133 1.29125 10.339 0.798828 9.44886C0.310192 8.55871 0.0658736 7.4697 0.0658736 6.18182C0.0658736 4.88636 0.315874 3.79545 0.815874 2.90909C1.31587 2.01894 1.99012 1.34659 2.8386 0.892045C3.68709 0.433712 4.63406 0.204545 5.67951 0.204545C6.41436 0.204545 7.0905 0.304924 7.70792 0.505681C8.32534 0.706439 8.86701 1 9.33292 1.38636C9.79883 1.76894 10.1738 2.24053 10.4579 2.80114C10.742 3.36174 10.9144 4.00379 10.975 4.72727Z" fill="black"/>
</svg>
