<svg width="27" height="19" viewBox="0 0 27 19" fill="none" xmlns="http://www.w3.org/2000/svg">
<g opacity="0.5">
<path d="M1.25136 10.9996C0.792388 10.1074 1.64002 9.10512 2.59609 9.40959L3.63154 9.73935C3.95793 9.84329 4.30926 9.83827 4.63255 9.72504L21.796 3.71353C23.6613 3.06023 25.7035 4.03876 26.3631 5.9018C26.4457 6.13523 26.3235 6.39146 26.0901 6.4741L6.38675 13.4496C4.29211 14.1912 1.99292 13.0943 1.25136 10.9996Z" fill="black"/>
<path d="M6.37312 5.24286C6.65785 4.16381 7.76342 3.51988 8.84247 3.80462L14.471 5.28983L10.1581 6.79469L6.83991 6.01885C6.49351 5.93785 6.28235 5.58683 6.37312 5.24286Z" fill="black"/>
<path d="M9.89197 17.3665C11.1134 18.2687 12.8348 18.0099 13.737 16.7885L19.0128 9.64563L12.8816 12.0975L9.72481 16.1472C9.42771 16.5283 9.50326 17.0794 9.89197 17.3665Z" fill="black"/>
</g>
</svg>
