<svg width="294" height="227" viewBox="0 0 294 227" fill="none" xmlns="http://www.w3.org/2000/svg">
<path d="M122 112L64.6702 118.829L99.2491 165.063L122 112ZM5.99461 205.004L88.9583 142.956L82.9691 134.947L0.00538635 196.996L5.99461 205.004Z" fill="#383838"/>
<path d="M192 123L188.862 209.546L265.382 168.99L192 123ZM251.627 219.488L230.237 179.129L216.983 186.153L238.373 226.512L251.627 219.488Z" fill="#383838"/>
<path d="M212 62L263.955 62.8015L238.672 17.4061L212 62ZM288.81 14.0686L245.193 38.3621L249.572 46.2248L293.19 21.9314L288.81 14.0686Z" fill="#383838"/>
<path d="M217 79.9984L239.844 106.04L250.975 73.2361L217 79.9984ZM273.964 96.1591L243.533 85.8332L241.605 91.515L272.036 101.841L273.964 96.1591Z" fill="#383838"/>
<path d="M122 41.9984L108.997 9.89048L87.6926 37.2055L122 41.9984ZM70.155 5.36555L98.8655 27.7586L102.556 23.0275L73.845 0.634447L70.155 5.36555Z" fill="#383838"/>
</svg>
