<svg width="40" height="40" viewBox="0 0 40 40" fill="none" xmlns="http://www.w3.org/2000/svg">
<circle cx="20" cy="20" r="19" fill="white" stroke="#C9C9C9" stroke-width="2"/>
<path d="M17.8145 12.6993C17.8145 12.6995 17.8129 12.7018 17.8095 12.7059C17.8127 12.7013 17.8144 12.6992 17.8145 12.6993ZM14.2778 12.722C14.2779 12.7219 14.2798 12.7241 14.2835 12.7289C14.2796 12.7246 14.2778 12.7222 14.2778 12.722Z" stroke="black" stroke-width="4"/>
<path d="M25.0137 19.9025C25.0137 19.9026 25.0121 19.9049 25.0087 19.909C25.0119 19.9044 25.0136 19.9024 25.0137 19.9025ZM21.4771 19.9252C21.4771 19.925 21.479 19.9272 21.4827 19.932C21.4789 19.9277 21.477 19.9253 21.4771 19.9252Z" stroke="black" stroke-width="4"/>
<path d="M17.8145 26.379C17.8145 26.3792 17.8129 26.3814 17.8095 26.3855C17.8127 26.381 17.8144 26.3789 17.8145 26.379ZM14.2778 26.4017C14.2779 26.4016 14.2798 26.4037 14.2835 26.4086C14.2796 26.4043 14.2778 26.4019 14.2778 26.4017Z" stroke="black" stroke-width="4"/>
<rect x="11" y="12.4375" width="17.28" height="1.78759" rx="0.893793" fill="black"/>
<rect x="11" y="26.0938" width="17.28" height="1.78759" rx="0.893793" fill="black"/>
<rect x="11" y="19.2656" width="17.28" height="1.78759" rx="0.893793" fill="black"/>
</svg>
