<svg width="40" height="40" viewBox="0 0 40 40" fill="none" xmlns="http://www.w3.org/2000/svg">
<circle cx="20" cy="20" r="19" fill="white" stroke="#C9C9C9" stroke-width="2"/>
<path d="M15.1823 12.2776L16.0592 13.7464L16.9088 12.2616C16.9597 12.1727 17.004 12.1108 17.0391 12.0683C17.0585 12.0945 17.0798 12.1277 17.101 12.1691C17.1639 12.2918 17.2009 12.4379 17.2009 12.5756C17.2009 12.8491 17.0593 13.1927 16.7276 13.5692C16.53 13.7934 16.2943 13.9946 16.0586 14.1586C15.8157 13.9922 15.5712 13.7879 15.3662 13.5606C15.0225 13.1795 14.8809 12.8389 14.8809 12.5756C14.8809 12.4323 14.918 12.2834 14.9795 12.1606C14.9975 12.1247 15.0162 12.0939 15.0341 12.0683C15.0733 12.1129 15.1237 12.1795 15.1823 12.2776Z" stroke="black" stroke-width="2"/>
<path d="M22.3815 19.4807L23.2584 20.9495L24.108 19.4647C24.1589 19.3758 24.2032 19.3139 24.2384 19.2714C24.2578 19.2977 24.279 19.3309 24.3002 19.3723C24.3632 19.495 24.4001 19.641 24.4001 19.7788C24.4001 20.0522 24.2586 20.3958 23.9268 20.7723C23.7292 20.9965 23.4935 21.1977 23.2578 21.3617C23.0149 21.1953 22.7704 20.9911 22.5654 20.7637C22.2217 20.3826 22.0801 20.042 22.0801 19.7788C22.0801 19.6355 22.1172 19.4865 22.1787 19.3638C22.1967 19.3278 22.2154 19.297 22.2333 19.2714C22.2725 19.316 22.3229 19.3826 22.3815 19.4807Z" stroke="black" stroke-width="2"/>
<path d="M15.1823 25.9573L16.0592 27.4261L16.9088 25.9413C16.9597 25.8524 17.004 25.7905 17.0391 25.748C17.0585 25.7742 17.0798 25.8074 17.101 25.8488C17.1639 25.9715 17.2009 26.1176 17.2009 26.2553C17.2009 26.5288 17.0593 26.8724 16.7276 27.2489C16.53 27.4731 16.2943 27.6743 16.0586 27.8383C15.8157 27.6719 15.5712 27.4676 15.3662 27.2403C15.0225 26.8592 14.8809 26.5185 14.8809 26.2553C14.8809 26.112 14.918 25.9631 14.9795 25.8403C14.9975 25.8043 15.0162 25.7736 15.0341 25.748C15.0733 25.7925 15.1237 25.8592 15.1823 25.9573Z" stroke="black" stroke-width="2"/>
<rect x="11" y="12.4375" width="17.28" height="1.78759" rx="0.893793" fill="black"/>
<rect x="11" y="26.0938" width="17.28" height="1.78759" rx="0.893793" fill="black"/>
<rect x="11" y="19.2656" width="17.28" height="1.78759" rx="0.893793" fill="black"/>
</svg>
