<svg width="35" height="65" viewBox="0 0 35 65" fill="none" xmlns="http://www.w3.org/2000/svg">
<rect x="0.5" y="0.5" width="34" height="64" rx="5.5" fill="white" stroke="#868686"/>
<path d="M13 4C13 3.44772 13.4477 3 14 3H20C20.5523 3 21 3.44772 21 4C21 4.55228 20.5523 5 20 5H14C13.4477 5 13 4.55228 13 4Z" fill="#868686"/>
<rect x="11" y="62" width="12.1028" height="0.518868" rx="0.259434" fill="#D9D9D9"/>
<path d="M11.7876 31.5646H11.0121C10.9822 31.3989 10.9267 31.2531 10.8455 31.1271C10.7643 31.0012 10.6649 30.8943 10.5472 30.8065C10.4296 30.7186 10.2978 30.6523 10.152 30.6076C10.0078 30.5629 9.85452 30.5405 9.69212 30.5405C9.39879 30.5405 9.13613 30.6142 8.90412 30.7617C8.67377 30.9092 8.49148 31.1255 8.35724 31.4105C8.22467 31.6955 8.15838 32.0436 8.15838 32.4545C8.15838 32.8688 8.22467 33.2185 8.35724 33.5036C8.49148 33.7886 8.6746 34.004 8.90661 34.1499C9.13861 34.2957 9.39962 34.3686 9.68963 34.3686C9.85038 34.3686 10.0028 34.3471 10.147 34.304C10.2929 34.2592 10.4246 34.1938 10.5423 34.1076C10.6599 34.0214 10.7594 33.9162 10.8406 33.7919C10.9234 33.666 10.9806 33.5218 11.0121 33.3594L11.7876 33.3619C11.7462 33.6121 11.6658 33.8424 11.5465 34.0529C11.4289 34.2617 11.2772 34.4424 11.0916 34.5948C10.9077 34.7456 10.6972 34.8625 10.4602 34.9453C10.2232 35.0282 9.96473 35.0696 9.68466 35.0696C9.24384 35.0696 8.85109 34.9652 8.50639 34.7564C8.1617 34.5459 7.88991 34.2451 7.69105 33.854C7.49384 33.4629 7.39524 32.9964 7.39524 32.4545C7.39524 31.911 7.49467 31.4445 7.69354 31.055C7.8924 30.6639 8.16418 30.364 8.50888 30.1552C8.85357 29.9447 9.2455 29.8395 9.68466 29.8395C9.95478 29.8395 10.2067 29.8784 10.4403 29.9563C10.6757 30.0326 10.887 30.1452 11.0742 30.2944C11.2615 30.4419 11.4164 30.6225 11.5391 30.8363C11.6617 31.0484 11.7446 31.2912 11.7876 31.5646ZM12.3215 36.2305V34.3487H12.657C12.7714 34.2526 12.8783 34.1159 12.9777 33.9386C13.0771 33.7612 13.1617 33.5218 13.2313 33.2202C13.3009 32.9186 13.3489 32.5316 13.3754 32.0593L13.4948 29.9091H16.6343V34.3487H17.211V36.223H16.4752V35H13.0573V36.2305H12.3215ZM13.5619 34.3487H15.8985V30.5703H14.1908L14.1112 32.0593C14.0897 32.4189 14.0541 32.7421 14.0044 33.0288C13.9563 33.3155 13.8941 33.569 13.8179 33.7894C13.7433 34.0082 13.658 34.1946 13.5619 34.3487ZM21.3362 32.1911V32.8423H19.2059V32.1911H21.3362ZM17.8909 33.3842H18.6714C18.7145 33.719 18.8256 33.975 19.0045 34.1523C19.1852 34.3297 19.4661 34.4183 19.8472 34.4183C20.1289 34.4183 20.3609 34.3437 20.5432 34.1946C20.7255 34.0438 20.8606 33.84 20.9484 33.5831C21.0379 33.3262 21.0827 33.0379 21.0827 32.718V32.201C21.0827 31.8563 21.0329 31.5563 20.9335 31.3011C20.8341 31.0459 20.6891 30.8487 20.4985 30.7095C20.3096 30.5703 20.0784 30.5007 19.805 30.5007C19.558 30.5007 19.3559 30.543 19.1984 30.6275C19.041 30.712 18.92 30.833 18.8355 30.9904C18.7526 31.1462 18.6979 31.3343 18.6714 31.5547H17.8884C17.9215 31.2266 18.0127 30.9332 18.1618 30.6747C18.3126 30.4162 18.5239 30.2124 18.7957 30.0632C19.0692 29.9141 19.4056 29.8395 19.805 29.8395C20.2259 29.8395 20.5896 29.9373 20.8962 30.1328C21.2045 30.3267 21.4423 30.6001 21.6096 30.9531C21.777 31.3061 21.8607 31.7204 21.8607 32.196V32.7255C21.8607 33.2011 21.7778 33.6146 21.6121 33.9659C21.4481 34.3172 21.2152 34.589 20.9136 34.7812C20.612 34.9735 20.2565 35.0696 19.8472 35.0696C19.4379 35.0696 19.094 34.9967 18.8156 34.8509C18.5372 34.7034 18.3218 34.5028 18.1693 34.2493C18.0168 33.9941 17.924 33.7057 17.8909 33.3842ZM25.8374 35L24.1271 32.718H23.5852V35H22.8171V29.9091H23.5852V32.0593H23.8363L25.7603 29.9091H26.6974L24.6616 32.1886L26.7745 35H25.8374Z" fill="#424242"/>
</svg>
