<svg width="24" height="24" viewBox="0 0 24 24" fill="none" xmlns="http://www.w3.org/2000/svg">
<rect x="1.5" y="14.7422" width="21" height="7.75862" rx="3.5" stroke="#3E3E3E" stroke-width="3"/>
<path fill-rule="evenodd" clip-rule="evenodd" d="M12.0001 0C9.10124 0 6.73794 5.87943 6.625 13.2414H9.62538C9.68056 9.94203 10.2269 7.09008 10.9913 5.12994C11.3503 4.20955 11.712 3.60287 12.0001 3.24717C12.2882 3.60287 12.6499 4.20955 13.0089 5.12994C13.7733 7.09008 14.3196 9.94203 14.3748 13.2414H17.3752C17.2622 5.87943 14.8989 0 12.0001 0ZM12.3128 2.93464C12.3128 2.93494 12.309 2.93754 12.3013 2.94154C12.309 2.93634 12.3128 2.93434 12.3128 2.93464ZM11.6989 2.94154C11.6912 2.93754 11.6874 2.93494 11.6874 2.93464C11.6874 2.93434 11.6912 2.93634 11.6989 2.94154Z" fill="#3E3E3E"/>
</svg>
